<svg xmlns="http://www.w3.org/2000/svg" width="240" height="60" viewBox="0 0 240 60">
  <rect width="100%" height="100%" fill="#ffffff"/>
  <!-- simple barcode bars (placeholder) -->
  <g fill="#000">
    <rect x="6" y="8" width="4" height="44"/>
    <rect x="14" y="8" width="2" height="44"/>
    <rect x="18" y="8" width="6" height="44"/>
    <rect x="28" y="8" width="2" height="44"/>
    <rect x="32" y="8" width="8" height="44"/>
    <rect x="44" y="8" width="3" height="44"/>
    <rect x="50" y="8" width="2" height="44"/>
    <rect x="54" y="8" width="6" height="44"/>
    <rect x="66" y="8" width="2" height="44"/>
    <rect x="70" y="8" width="10" height="44"/>
    <rect x="84" y="8" width="3" height="44"/>
    <rect x="90" y="8" width="2" height="44"/>
    <rect x="94" y="8" width="6" height="44"/>
    <rect x="106" y="8" width="2" height="44"/>
    <rect x="110" y="8" width="8" height="44"/>
    <rect x="122" y="8" width="3" height="44"/>
    <rect x="128" y="8" width="2" height="44"/>
    <rect x="132" y="8" width="6" height="44"/>
    <rect x="144" y="8" width="2" height="44"/>
    <rect x="148" y="8" width="10" height="44"/>
    <rect x="162" y="8" width="3" height="44"/>
    <rect x="168" y="8" width="2" height="44"/>
    <rect x="172" y="8" width="6" height="44"/>
    <rect x="184" y="8" width="2" height="44"/>
    <rect x="188" y="8" width="8" height="44"/>
    <rect x="200" y="8" width="3" height="44"/>
    <rect x="206" y="8" width="2" height="44"/>
    <rect x="210" y="8" width="6" height="44"/>
  </g>
  <text x="120" y="56" font-family="Arial, Helvetica, sans-serif" font-size="10" fill="#000" text-anchor="middle">PT-00123</text>
</svg>